<svg xmlns="http://www.w3.org/2000/svg" xmlns:xlink="http://www.w3.org/1999/xlink" >
<g id="loupe">
<path d="M146.623,73.312c0-40.423-32.888-73.311-73.312-73.312C32.888,0,0,32.888,0,73.312c0,19.582,7.626,37.992,21.473,51.839
	c13.847,13.847,32.257,21.473,51.838,21.472l0.005-15v15c14.796,0,28.571-4.421,40.104-11.989l60.974,60.974l21.213-21.213
	l-60.974-60.974C142.202,101.886,146.623,88.108,146.623,73.312z M73.315,116.622h-0.004c-11.569,0-22.445-4.505-30.626-12.685
	C34.505,95.757,30,84.88,30,73.312C30,49.43,49.43,30,73.312,30c23.882,0.001,43.312,19.431,43.312,43.312
	C116.623,97.193,97.195,116.622,73.315,116.622z"/>
</g>


</svg>
